<svg xmlns="http://www.w3.org/2000/svg" viewBox="0 0 640 512" fill="white"><path d="M524.5 69.8a503.3 503.3 0 0 0-120.3-37.4 3.3 3.3 0 0 0-3.5 1.7 344.6 344.6 0 0 0-15.2 31.2 461.3 461.3 0 0 0-137 0 340.5 340.5 0 0 0-15.3-31.2 3.3 3.3 0 0 0-3.5-1.7 503.3 503.3 0 0 0-120.3 37.4 3.3 3.3 0 0 0-1.5 1.4c-78.3 117.1-99.7 231.2-89.1 343.4a3.3 3.3 0 0 0 1.3 2.3c51.7 38.1 101.8 61.3 151 76.6a3.3 3.3 0 0 0 3.6-1.2 361.3 361.3 0 0 0 31.1-50.6 3.2 3.2 0 0 0-1.8-4.5 329.1 329.1 0 0 1-47.3-22.5 3.3 3.3 0 0 1-.3-5.5c3.2-2.4 6.4-4.9 9.4-7.4a3.2 3.2 0 0 1 3.4-.5c99.7 45.6 207.7 45.6 306.4 0a3.2 3.2 0 0 1 3.5.5c3 2.5 6.2 5 9.4 7.4a3.3 3.3 0 0 1-.3 5.5 328.7 328.7 0 0 1-47.3 22.5 3.2 3.2 0 0 0-1.7 4.5 365 365 0 0 0 31.1 50.6 3.3 3.3 0 0 0 3.6 1.2c49.2-15.3 99.3-38.5 151-76.6a3.3 3.3 0 0 0 1.3-2.3c12-126.7-19.4-239.9-89.8-344.8a3.3 3.3 0 0 0-1.5-1.4zM210.1 364.5c-29.7 0-54.1-27.3-54.1-60.8 0-33.5 24-60.8 54.1-60.8 30.4 0 54.4 27.6 54.1 60.8 0 33.5-24 60.8-54.1-60.8zM430.4 364.5c-29.7 0-54.1-27.3-54.1-60.8 0-33.5 24-60.8 54.1-60.8 30.4 0 54.4 27.6 54.1 60.8 0 33.5-24.3 60.8-54.1 60.8z"/></svg>
